<svg width="1920" height="1080" xmlns="http://www.w3.org/2000/svg">
 <g id="Layer_1">
  <title>Layer 1</title>
  <path id="svg_1" d="m1786.73733,415.57969c-149.17127,0 -270,-120.82873 -270,-270c0,-149.17127 120.82873,-270 270,-270c149.17127,0 270,120.82873 270,270c0,149.17127 -120.82873,270 -270,270z" opacity="undefined" fill="#ff9500"/>
  <path id="svg_2" d="m1357.66862,1187.43756c-87.36969,0 -158.13914,-70.76945 -158.13914,-158.13914c0,-87.36969 70.76945,-158.13914 158.13914,-158.13914c87.36969,0 158.13914,70.76945 158.13914,158.13914c0,87.36969 -70.76945,158.13914 -158.13914,158.13914z" opacity="undefined" stroke-width="10" fill="#ff9500"/>
  <path stroke-width="10" stroke="#ff9500" id="svg_3" d="m1684.41201,1229.53113c-149.17127,0 -270,-120.82873 -270,-270c0,-149.17127 120.82873,-270 270,-270c149.17127,0 270,120.82873 270,270c0,149.17127 -120.82873,270 -270,270z" opacity="undefined" fill="#ffffff"/>
  <path id="svg_4" d="m1853.01624,557.20656c-87.36969,0 -158.13914,-70.76945 -158.13914,-158.13914c0,-87.36969 70.76945,-158.13914 158.13914,-158.13914c87.36969,0 158.13914,70.76945 158.13914,158.13914c0,87.36969 -70.76945,158.13914 -158.13914,158.13914z" opacity="undefined" stroke-width="10" stroke="#ffffff" fill="#d0d0d0"/>
 </g>
</svg>