<svg width="1920.0000000000002" height="1080" xmlns="http://www.w3.org/2000/svg">
 <g id="Layer_1">
  <title>Layer 1</title>
  <path id="svg_14" d="m-102.37766,1235.01027c-87.36969,0 -158.13914,-70.76945 -158.13914,-158.13914c0,-87.36969 70.76945,-158.13914 158.13914,-158.13914c87.36969,0 158.13914,70.76945 158.13914,158.13914c0,87.36969 -70.76945,158.13914 -158.13914,158.13914z" opacity="undefined" stroke-width="10" stroke="#ffffff" fill="#d0d0d0"/>
  <path id="svg_1" d="m1989.97028,375.06253c-149.17127,0 -270,-120.82873 -270,-270c0,-149.17127 120.82873,-270 270,-270c149.17127,0 270,120.82873 270,270c0,149.17127 -120.82873,270 -270,270z" opacity="undefined" fill="#ff9500"/>
  <path stroke-width="10" stroke="#ff9500" id="svg_3" d="m1668.89486,2389.01449c-149.17127,0 -270,-120.82873 -270,-270c0,-149.17127 120.82873,-270 270,-270c149.17127,0 270,120.82873 270,270c0,149.17127 -120.82873,270 -270,270z" opacity="undefined" fill="#ffffff"/>
  <path id="svg_4" d="m1990.5163,544.70656c-87.36969,0 -158.13914,-70.76945 -158.13914,-158.13914c0,-87.36969 70.76945,-158.13914 158.13914,-158.13914c87.36969,0 158.13914,70.76945 158.13914,158.13914c0,87.36969 -70.76945,158.13914 -158.13914,158.13914z" opacity="undefined" stroke-width="10" stroke="#ffffff" fill="#d0d0d0"/>
  <path id="svg_6" d="m1820.1688,1224.93758c-87.36969,0 -158.13914,-70.76945 -158.13914,-158.13914c0,-87.36969 70.76945,-158.13914 158.13914,-158.13914c87.36969,0 158.13914,70.76945 158.13914,158.13914c0,87.36969 -70.76945,158.13914 -158.13914,158.13914z" opacity="undefined" stroke-width="10" stroke="#ffffff" fill="#ff9500"/>
  <path stroke-width="10" stroke="#ff9500" id="svg_7" d="m2059.41216,1167.0311c-149.17127,0 -270,-120.82873 -270,-270c0,-149.17127 120.82873,-270 270,-270c149.17127,0 270,120.82873 270,270c0,149.17127 -120.82873,270 -270,270z" opacity="undefined" fill="#ffffff"/>
  <path id="svg_8" d="m-13.26837,250.92418c-149.17127,0 -270,-120.82873 -270,-270c0,-149.17127 120.82873,-270 270,-270c149.17127,0 270,120.82873 270,270c0,149.17127 -120.82873,270 -270,270z" opacity="undefined" fill="#ff9500"/>
  <path id="svg_11" d="m294.39066,142.3351c-87.36969,0 -158.13914,-70.76945 -158.13914,-158.13914c0,-87.36969 70.76945,-158.13914 158.13914,-158.13914c87.36969,0 158.13914,70.76945 158.13914,158.13914c0,87.36969 -70.76945,158.13914 -158.13914,158.13914z" opacity="undefined" stroke-width="10" stroke="#ffffff" fill="#d0d0d0"/>
  <path id="svg_12" d="m-37.80918,940.23787c-87.36969,0 -158.13914,-70.76945 -158.13914,-158.13914c0,-87.36969 70.76945,-158.13914 158.13914,-158.13914c87.36969,0 158.13914,70.76945 158.13914,158.13914c0,87.36969 -70.76945,158.13914 -158.13914,158.13914z" opacity="undefined" stroke-width="10" stroke="#ffffff" fill="#ff9500"/>
  <path stroke-width="10" stroke="#ff9500" id="svg_13" d="m-70.1195,718.53818c-149.17127,0 -270,-120.82873 -270,-270c0,-149.17127 120.82873,-270 270,-270c149.17127,0 270,120.82873 270,270c0,149.17127 -120.82873,270 -270,270z" opacity="undefined" fill="#ffffff"/>
 </g>

</svg>