<svg width="1920" height="1080" xmlns="http://www.w3.org/2000/svg">
 <g id="Layer_1">
  <title>Layer 1</title>
  <ellipse ry="140" rx="140" id="svg_17" cy="649.10492" cx="86.60324" stroke="#d0d0d0" fill="#d0d0d0"/>
  <ellipse ry="140" rx="140" id="svg_7" cy="133.18976" cx="559.33607" stroke="#d0d0d0" fill="#d0d0d0"/>
  <ellipse ry="140" rx="140" id="svg_12" cy="319.55559" cx="1886.62448" stroke="#d0d0d0" fill="#d0d0d0"/>
  <path id="svg_2" d="m1345.70894,548.193c-77.34807,0 -140,-62.65193 -140,-140c0,-77.34807 62.65193,-140 140,-140c77.34807,0 140,62.65193 140,140c0,77.34807 -62.65193,140 -140,140z" opacity="undefined" stroke="#d0d0d0" fill="#d0d0d0"/>
  <ellipse stroke-width="10" ry="320" rx="320" id="svg_1" cy="5.91552" cx="222.96847" stroke="#ff9500" fill="#fff"/>
  <ellipse ry="89.77378" rx="92.04654" id="svg_4" cy="357.05605" cx="202.5137" stroke="#ff9500" fill="#ff9500"/>
  <ellipse stroke-width="10" ry="320" rx="332" id="svg_6" cy="751.37885" cx="1546.8477" stroke="#ff9500" fill="#ffffff"/>
  <ellipse ry="140" rx="140" id="svg_8" cy="1033.20036" cx="1475.25594" stroke="#d0d0d0" fill="#d0d0d0"/>
  <ellipse stroke="#d0d0d0" ry="185.22946" rx="190.91135" id="svg_9" cy="-40.67591" cx="1094.56962" fill="#ff9500"/>
  <ellipse stroke-width="10" ry="150" rx="150" id="svg_11" cy="78.64364" cx="1837.76022" stroke="#ff9500" fill="#ffffff"/>
  <ellipse ry="89.77378" rx="92.04654" id="svg_13" cy="238.87283" cx="1786.62332" stroke="#ff9500" fill="#ff9500"/>
  <ellipse stroke-width="10" ry="320" rx="332" id="svg_15" cy="858.1983" cx="449.10754" stroke="#ff9500" fill="#ffffff"/>
  <ellipse ry="178.41119" rx="177.27481" id="svg_16" cy="732.06045" cx="1865.03324" stroke="#d0d0d0" fill="#ff9500"/>
  <ellipse ry="178.41119" rx="177.27481" id="svg_14" cy="902.517" cx="19.55702" stroke="#d0d0d0" fill="#ff9500"/>
 </g>
</svg>